<svg width="925" height="900" viewBox="0 0 925 900" fill="none" xmlns="http://www.w3.org/2000/svg">
<path d="M402.5 332.5C535.7 293.7 569 70.3333 569 -36.5C586.333 -64 640.1 -121.9 716.5 -133.5C812 -148 917 -122.5 923.5 -17C930 88.5 906 112.5 797.5 151C689 189.5 770 263 668 368C566 473 846 653 593.5 774C341 895 211.5 740 192 606C206.667 531 269.3 371.3 402.5 332.5Z" fill="#FF7200" fill-opacity="0.27"/>
<path d="M265.539 455.772C433.566 406.808 475.573 124.934 475.573 -9.88316C497.438 -44.5864 565.263 -117.653 661.639 -132.291C782.109 -150.589 914.562 -118.41 922.762 14.7246C930.962 147.859 900.686 178.145 763.817 226.73C626.948 275.315 729.127 368.067 600.458 500.57C471.788 633.074 824.998 860.222 506.478 1012.92C187.958 1165.61 24.5986 970.011 0 800.911C18.5015 706.266 97.5113 504.735 265.539 455.772Z" fill="#FF7200" fill-opacity="0.27"/>
</svg>
